<svg xmlns="http://www.w3.org/2000/svg" viewBox="0 0 640 512" fill="#FF9900">
  <path d="M180.41 203.01c-.72 22.65 10.6 32.68 10.88 39.05a8.164 8.164 0 0 1-4.1 6.27l-12.8 8.96c-10.88 5.71-22.1 11.37-33.54 15.4-8.23 2.15-17.56 3.6-27.38 3.6-36.35 0-64.18-21.13-64.18-68.64 0-42.62 30.86-83.48 78.82-83.48 25.19 0 45.28 8.46 57.74 21.81l-12.58 9.73c-9.61-10.88-24.02-17.94-45.71-17.94-35.07 0-62.17 24.01-62.17 69.27 0 38.81 21.97 62.63 61.88 62.63 18.13 0 32.01-2.41 48.97-10.89l1.87-57.97h-49.58l4.59-17.3h70.29zM504 352H136.45c-8.61 0-16.62-4.09-21.53-10.96C109.99 335.14 640 224.43 640 128c0-12.93-7.97-24.59-20.16-29.95C449.22 29.26 333.7 0 256 0H96C43 0 0 43 0 96v320c0 53 43 96 96 96h408c53 0 96-43 96-96 0-17.67-14.33-32-32-32h-64v-32zm-16 96c-17.67 0-32-14.33-32-32s14.33-32 32-32 32 14.33 32 32-14.33 32-32 32zm-280-80h16v32h-16v-32zm-32 0h16v32h-16v-32zm-32 0h16v32h-16v-32zm-32 0h16v32h-16v-32zm-32 0h16v32h-16v-32zm-32 0h16v32h-16v-32zm-32 0h16v32h-16v-32zm-32 0h16v32h-16v-32z"/>
</svg>