<svg xmlns="http://www.w3.org/2000/svg" viewBox="0 0 24 24" fill="#326CE5">
  <path d="M10.204 14.35l.007.01-.999 2.413a5.992 5.992 0 0 0 2.982.052l-1.176-2.425a.05.05 0 0 1-.007-.01l-.807-.04zm-2.362-1.55a.051.051 0 0 1-.007-.01l-2.296-1.3a6.026 6.026 0 0 0 .566 3.06l1.728-1.721.7.01.009-.04zm7.59.04l.007-.01 1.78 1.74a6.026 6.026 0 0 0 .521-3.072l-2.322 1.343a.051.051 0 0 1-.007.01l.021.03zM10.02 9.96l.007-.01 1.2-2.432a5.992 5.992 0 0 0-3.013.023l1.79 2.4a.052.052 0 0 1 .7.01l.01.01zm3.7.061a.052.052 0 0 1 .007-.01l2.011-1.95a6.026 6.026 0 0 0-2.701-1.61l.693 3.556.01.014h-.02zm-7.122-.104l.006-.011.719-3.56a6.026 6.026 0 0 0-2.75 1.652l2.015 1.92.1.01v-.011zm3.83-3.298a5.526 5.526 0 1 1-5.526 5.525 5.532 5.532 0 0 1 5.526-5.525zm.002-1.613a7.14 7.14 0 1 0 7.142 7.139 7.141 7.141 0 0 0-7.142-7.14z"/>
</svg>